<svg version="1.1" xmlns="http://www.w3.org/2000/svg" xmlns:xlink="http://www.w3.org/1999/xlink" width="310" height="78" viewBox="0,0,310,78"><g transform="translate(-98.87162,-149.00517)"><g data-paper-data="{&quot;isPaintingLayer&quot;:true}" fill-rule="nonzero" stroke-width="1" stroke-linecap="butt" stroke-linejoin="miter" stroke-miterlimit="10" stroke-dasharray="" stroke-dashoffset="0" style="mix-blend-mode: normal"><g><path d="M101.27162,191.00517c-1.32549,0 -2.4,0 -2.4,0v-12c0,0 1.07451,0 2.4,0h79.2c1.32548,0 2.4,0 2.4,0v12c0,0 -1.07451,0 -2.4,0z" fill="#4a5568" stroke="none"/><path d="M110.87162,227.00517c0,0 0,-21.70443 0,-28.1857c0,-3.41264 0,-7.8143 0,-7.8143h6v36z" fill="#4a5568" stroke="none"/><path d="M164.87162,227.00517v-36h6v36z" fill="#4a5568" stroke="none"/><path d="M119.27162,179.00517c-1.32549,0 -2.4,0 -2.4,0v-30c0,0 1.07451,0 2.4,0h43.2c1.32548,0 2.4,0 2.4,0v30c0,0 -1.07451,0 -2.4,0z" fill="#2d3748" stroke="none"/><path d="M122.87162,173.00517v-18h36v18z" fill="#63b3ed" stroke="none"/><path d="" fill="#ed64a6" stroke="#2d3748"/></g><text transform="translate(194.22035,193.63604)" font-size="38" xml:space="preserve" fill="#2d3748" fill-rule="nonzero" stroke="none" stroke-width="1" stroke-linecap="butt" stroke-linejoin="miter" stroke-miterlimit="10" stroke-dasharray="" stroke-dashoffset="0" font-family="Arial, sans-serif" font-weight="bold" text-anchor="start" style="mix-blend-mode: normal"><tspan x="0" dy="0">pWorkspace</tspan></text><text transform="translate(129.1016,169.10409) scale(0.34912,0.34912)" font-size="40" xml:space="preserve" fill="#6d6d6d" fill-rule="nonzero" stroke="none" stroke-width="1" stroke-linecap="butt" stroke-linejoin="miter" stroke-miterlimit="10" stroke-dasharray="" stroke-dashoffset="0" font-family="Sans Serif" font-weight="normal" text-anchor="start" style="mix-blend-mode: normal"><tspan x="0" dy="0">&lt;/&gt;</tspan></text></g></g></svg>